<mxfile host="Electron" agent="Mozilla/5.0 (Macintosh; Intel Mac OS X 10_15_7) AppleWebKit/537.36 (KHTML, like Gecko) draw.io/26.2.2 Chrome/134.0.6998.178 Electron/35.1.2 Safari/537.36" version="26.2.2">
  <diagram id="C5RBs43oDa-KdzZeNtuy" name="Page-1">
    <mxGraphModel dx="1007" dy="745" grid="1" gridSize="8" guides="1" tooltips="1" connect="1" arrows="1" fold="1" page="1" pageScale="1" pageWidth="1200" pageHeight="1600" math="0" shadow="0">
      <root>
        <mxCell id="WIyWlLk6GJQsqaUBKTNV-0" />
        <mxCell id="WIyWlLk6GJQsqaUBKTNV-1" parent="WIyWlLk6GJQsqaUBKTNV-0" />
        <mxCell id="zkfFHV4jXpPFQw0GAbJ--17" value="&lt;&lt;Interface&gt;&gt;&#xa;Enricher&lt;T&gt;" style="swimlane;fontStyle=0;align=center;verticalAlign=top;childLayout=stackLayout;horizontal=1;startSize=48;horizontalStack=0;resizeParent=1;resizeLast=0;collapsible=1;marginBottom=0;rounded=0;shadow=0;strokeWidth=1;" parent="WIyWlLk6GJQsqaUBKTNV-1" vertex="1">
          <mxGeometry x="464" y="908" width="160" height="80" as="geometry">
            <mxRectangle x="550" y="140" width="160" height="26" as="alternateBounds" />
          </mxGeometry>
        </mxCell>
        <mxCell id="zkfFHV4jXpPFQw0GAbJ--24" value="enrich(T data) : T" style="text;align=left;verticalAlign=top;spacingLeft=4;spacingRight=4;overflow=hidden;rotatable=0;points=[[0,0.5],[1,0.5]];portConstraint=eastwest;" parent="zkfFHV4jXpPFQw0GAbJ--17" vertex="1">
          <mxGeometry y="48" width="160" height="26" as="geometry" />
        </mxCell>
        <mxCell id="fN0G2EdwFAAk4O1QqVWk-1" value="CompositeEnricher&lt;T&gt;" style="swimlane;fontStyle=0;align=center;verticalAlign=top;childLayout=stackLayout;horizontal=1;startSize=26;horizontalStack=0;resizeParent=1;resizeLast=0;collapsible=1;marginBottom=0;rounded=0;shadow=0;strokeWidth=1;" parent="WIyWlLk6GJQsqaUBKTNV-1" vertex="1">
          <mxGeometry x="656" y="1068" width="160" height="88" as="geometry">
            <mxRectangle x="130" y="380" width="160" height="26" as="alternateBounds" />
          </mxGeometry>
        </mxCell>
        <mxCell id="fN0G2EdwFAAk4O1QqVWk-2" value="Enricher&lt;T&gt;[] enrichers" style="text;align=left;verticalAlign=top;spacingLeft=4;spacingRight=4;overflow=hidden;rotatable=0;points=[[0,0.5],[1,0.5]];portConstraint=eastwest;" parent="fN0G2EdwFAAk4O1QqVWk-1" vertex="1">
          <mxGeometry y="26" width="160" height="26" as="geometry" />
        </mxCell>
        <mxCell id="fN0G2EdwFAAk4O1QqVWk-4" value="" style="line;html=1;strokeWidth=1;align=left;verticalAlign=middle;spacingTop=-1;spacingLeft=3;spacingRight=3;rotatable=0;labelPosition=right;points=[];portConstraint=eastwest;" parent="fN0G2EdwFAAk4O1QqVWk-1" vertex="1">
          <mxGeometry y="52" width="160" height="8" as="geometry" />
        </mxCell>
        <mxCell id="fN0G2EdwFAAk4O1QqVWk-5" value="enrich(T data) : T" style="text;align=left;verticalAlign=top;spacingLeft=4;spacingRight=4;overflow=hidden;rotatable=0;points=[[0,0.5],[1,0.5]];portConstraint=eastwest;fontStyle=4" parent="fN0G2EdwFAAk4O1QqVWk-1" vertex="1">
          <mxGeometry y="60" width="160" height="26" as="geometry" />
        </mxCell>
        <mxCell id="fN0G2EdwFAAk4O1QqVWk-11" value="" style="endArrow=block;dashed=1;endFill=0;endSize=12;html=1;rounded=0;exitX=0.5;exitY=0;exitDx=0;exitDy=0;" parent="WIyWlLk6GJQsqaUBKTNV-1" source="fN0G2EdwFAAk4O1QqVWk-1" edge="1">
          <mxGeometry width="160" relative="1" as="geometry">
            <mxPoint x="801.92" y="1068" as="sourcePoint" />
            <mxPoint x="544" y="988" as="targetPoint" />
            <Array as="points">
              <mxPoint x="736" y="1028" />
              <mxPoint x="640" y="1028" />
              <mxPoint x="544" y="1028" />
            </Array>
          </mxGeometry>
        </mxCell>
        <mxCell id="fN0G2EdwFAAk4O1QqVWk-12" value="PeopleGroupAgileMembershipsEmailEnricher" style="swimlane;fontStyle=0;align=center;verticalAlign=top;childLayout=stackLayout;horizontal=1;startSize=26;horizontalStack=0;resizeParent=1;resizeLast=0;collapsible=1;marginBottom=0;rounded=0;shadow=0;strokeWidth=1;" parent="WIyWlLk6GJQsqaUBKTNV-1" vertex="1">
          <mxGeometry x="104" y="1068" width="272" height="152" as="geometry">
            <mxRectangle x="130" y="380" width="160" height="26" as="alternateBounds" />
          </mxGeometry>
        </mxCell>
        <mxCell id="fN0G2EdwFAAk4O1QqVWk-13" value="WFIService wfiService" style="text;align=left;verticalAlign=top;spacingLeft=4;spacingRight=4;overflow=hidden;rotatable=0;points=[[0,0.5],[1,0.5]];portConstraint=eastwest;" parent="fN0G2EdwFAAk4O1QqVWk-12" vertex="1">
          <mxGeometry y="26" width="272" height="26" as="geometry" />
        </mxCell>
        <mxCell id="fN0G2EdwFAAk4O1QqVWk-14" value="" style="line;html=1;strokeWidth=1;align=left;verticalAlign=middle;spacingTop=-1;spacingLeft=3;spacingRight=3;rotatable=0;labelPosition=right;points=[];portConstraint=eastwest;" parent="fN0G2EdwFAAk4O1QqVWk-12" vertex="1">
          <mxGeometry y="52" width="272" height="8" as="geometry" />
        </mxCell>
        <mxCell id="fN0G2EdwFAAk4O1QqVWk-15" value="enrich(List&lt;AMdto&gt; data) : AMdto" style="text;align=left;verticalAlign=top;spacingLeft=4;spacingRight=4;overflow=hidden;rotatable=0;points=[[0,0.5],[1,0.5]];portConstraint=eastwest;fontStyle=4" parent="fN0G2EdwFAAk4O1QqVWk-12" vertex="1">
          <mxGeometry y="60" width="272" height="92" as="geometry" />
        </mxCell>
        <mxCell id="fN0G2EdwFAAk4O1QqVWk-16" value="AgileMembershipsUserIdEnricher" style="swimlane;fontStyle=0;align=center;verticalAlign=top;childLayout=stackLayout;horizontal=1;startSize=26;horizontalStack=0;resizeParent=1;resizeLast=0;collapsible=1;marginBottom=0;rounded=0;shadow=0;strokeWidth=1;" parent="WIyWlLk6GJQsqaUBKTNV-1" vertex="1">
          <mxGeometry x="384" y="1068" width="192" height="152" as="geometry">
            <mxRectangle x="130" y="380" width="160" height="26" as="alternateBounds" />
          </mxGeometry>
        </mxCell>
        <mxCell id="fN0G2EdwFAAk4O1QqVWk-20" value="UserRepositoy userRepository&#xa;" style="text;align=left;verticalAlign=top;spacingLeft=4;spacingRight=4;overflow=hidden;rotatable=0;points=[[0,0.5],[1,0.5]];portConstraint=eastwest;" parent="fN0G2EdwFAAk4O1QqVWk-16" vertex="1">
          <mxGeometry y="26" width="192" height="26" as="geometry" />
        </mxCell>
        <mxCell id="fN0G2EdwFAAk4O1QqVWk-17" value="UserService userService&#xa;" style="text;align=left;verticalAlign=top;spacingLeft=4;spacingRight=4;overflow=hidden;rotatable=0;points=[[0,0.5],[1,0.5]];portConstraint=eastwest;" parent="fN0G2EdwFAAk4O1QqVWk-16" vertex="1">
          <mxGeometry y="52" width="192" height="26" as="geometry" />
        </mxCell>
        <mxCell id="fN0G2EdwFAAk4O1QqVWk-18" value="" style="line;html=1;strokeWidth=1;align=left;verticalAlign=middle;spacingTop=-1;spacingLeft=3;spacingRight=3;rotatable=0;labelPosition=right;points=[];portConstraint=eastwest;" parent="fN0G2EdwFAAk4O1QqVWk-16" vertex="1">
          <mxGeometry y="78" width="192" height="8" as="geometry" />
        </mxCell>
        <mxCell id="fN0G2EdwFAAk4O1QqVWk-19" value="enrich(List&lt;AMdto&gt; data) : AMdto" style="text;align=left;verticalAlign=top;spacingLeft=4;spacingRight=4;overflow=hidden;rotatable=0;points=[[0,0.5],[1,0.5]];portConstraint=eastwest;fontStyle=4" parent="fN0G2EdwFAAk4O1QqVWk-16" vertex="1">
          <mxGeometry y="86" width="192" height="66" as="geometry" />
        </mxCell>
        <mxCell id="fN0G2EdwFAAk4O1QqVWk-21" value="" style="endArrow=block;dashed=1;endFill=0;endSize=12;html=1;rounded=0;exitX=0.62;exitY=0.007;exitDx=0;exitDy=0;exitPerimeter=0;" parent="WIyWlLk6GJQsqaUBKTNV-1" source="fN0G2EdwFAAk4O1QqVWk-12" edge="1">
          <mxGeometry width="160" relative="1" as="geometry">
            <mxPoint x="305.91999999999996" y="1069.01" as="sourcePoint" />
            <mxPoint x="544" y="988" as="targetPoint" />
            <Array as="points">
              <mxPoint x="273" y="1028" />
              <mxPoint x="544" y="1028" />
            </Array>
          </mxGeometry>
        </mxCell>
        <mxCell id="fN0G2EdwFAAk4O1QqVWk-22" value="" style="endArrow=block;dashed=1;endFill=0;endSize=12;html=1;rounded=0;entryX=0.488;entryY=1.192;entryDx=0;entryDy=0;exitX=0.5;exitY=0;exitDx=0;exitDy=0;entryPerimeter=0;" parent="WIyWlLk6GJQsqaUBKTNV-1" source="fN0G2EdwFAAk4O1QqVWk-16" edge="1">
          <mxGeometry width="160" relative="1" as="geometry">
            <mxPoint x="785.92" y="1068" as="sourcePoint" />
            <mxPoint x="544" y="986.992" as="targetPoint" />
            <Array as="points">
              <mxPoint x="544" y="1068" />
            </Array>
          </mxGeometry>
        </mxCell>
        <mxCell id="fN0G2EdwFAAk4O1QqVWk-23" value="EnricherConfig" style="swimlane;fontStyle=1;align=center;verticalAlign=top;childLayout=stackLayout;horizontal=1;startSize=26;horizontalStack=0;resizeParent=1;resizeParentMax=0;resizeLast=0;collapsible=1;marginBottom=0;whiteSpace=wrap;html=1;" parent="WIyWlLk6GJQsqaUBKTNV-1" vertex="1">
          <mxGeometry x="332" y="688" width="424" height="192" as="geometry" />
        </mxCell>
        <mxCell id="fN0G2EdwFAAk4O1QqVWk-26" value="+ peopleGroupsAgileMembershipsUserIDAndEmailEnricher(type): Enricher&amp;lt;List&amp;lt;PeopleGroupsAgileMembershipsDto&amp;gt;&lt;div&gt;&lt;br&gt;&lt;/div&gt;&lt;div&gt;+ peopleGroupsAgileMembershipsUserIDEnricher(type): Enricher&amp;lt;List&amp;lt;PeopleGroupsAgileMembershipsDto&amp;gt;&lt;/div&gt;&lt;div&gt;&lt;br&gt;&lt;/div&gt;&lt;div&gt;+ peopleGroupsAgileMembershipsEmailEnricher(type): Enricher&amp;lt;List&amp;lt;PeopleGroupsAgileMembershipsDto&amp;gt;&lt;/div&gt;&lt;div&gt;&lt;br&gt;&lt;/div&gt;&lt;div&gt;+ AgileMembershipsFullEnricher(type): Enricher&amp;lt;List&amp;lt;PeopleGroupsAgileMembershipsDto&amp;gt;&lt;br&gt;&lt;div&gt;&lt;br&gt;&lt;/div&gt;&lt;div&gt;&lt;br&gt;&lt;/div&gt;&lt;/div&gt;" style="text;strokeColor=none;fillColor=none;align=left;verticalAlign=top;spacingLeft=4;spacingRight=4;overflow=hidden;rotatable=0;points=[[0,0.5],[1,0.5]];portConstraint=eastwest;whiteSpace=wrap;html=1;" parent="fN0G2EdwFAAk4O1QqVWk-23" vertex="1">
          <mxGeometry y="26" width="424" height="166" as="geometry" />
        </mxCell>
        <mxCell id="fN0G2EdwFAAk4O1QqVWk-28" style="edgeStyle=orthogonalEdgeStyle;rounded=0;orthogonalLoop=1;jettySize=auto;html=1;" parent="WIyWlLk6GJQsqaUBKTNV-1" source="fN0G2EdwFAAk4O1QqVWk-27" edge="1">
          <mxGeometry relative="1" as="geometry">
            <mxPoint x="208" y="1060" as="targetPoint" />
            <Array as="points">
              <mxPoint x="128" y="1035" />
              <mxPoint x="128" y="996" />
              <mxPoint x="180" y="996" />
              <mxPoint x="180" y="1035" />
            </Array>
          </mxGeometry>
        </mxCell>
        <mxCell id="fN0G2EdwFAAk4O1QqVWk-27" value="There are more examples but you get the point" style="text;html=1;align=center;verticalAlign=middle;whiteSpace=wrap;rounded=0;" parent="WIyWlLk6GJQsqaUBKTNV-1" vertex="1">
          <mxGeometry x="40" y="1020" width="60" height="30" as="geometry" />
        </mxCell>
        <mxCell id="fN0G2EdwFAAk4O1QqVWk-29" value="" style="endArrow=none;html=1;edgeStyle=orthogonalEdgeStyle;rounded=0;" parent="WIyWlLk6GJQsqaUBKTNV-1" edge="1">
          <mxGeometry relative="1" as="geometry">
            <mxPoint x="544" y="908" as="sourcePoint" />
            <mxPoint x="544" y="880" as="targetPoint" />
            <Array as="points">
              <mxPoint x="544" y="892" />
              <mxPoint x="544" y="892" />
            </Array>
          </mxGeometry>
        </mxCell>
        <mxCell id="fN0G2EdwFAAk4O1QqVWk-32" value="AgileMembershipsEnrichmentFacade" style="swimlane;fontStyle=1;align=center;verticalAlign=top;childLayout=stackLayout;horizontal=1;startSize=26;horizontalStack=0;resizeParent=1;resizeParentMax=0;resizeLast=0;collapsible=1;marginBottom=0;whiteSpace=wrap;html=1;" parent="WIyWlLk6GJQsqaUBKTNV-1" vertex="1">
          <mxGeometry x="112" y="448" width="256" height="116" as="geometry" />
        </mxCell>
        <mxCell id="fN0G2EdwFAAk4O1QqVWk-33" value="- fullEnricher: Enricher&amp;lt;List&amp;lt;AgileMembershipsDto&amp;gt;&amp;gt;" style="text;strokeColor=none;fillColor=none;align=left;verticalAlign=top;spacingLeft=4;spacingRight=4;overflow=hidden;rotatable=0;points=[[0,0.5],[1,0.5]];portConstraint=eastwest;whiteSpace=wrap;html=1;" parent="fN0G2EdwFAAk4O1QqVWk-32" vertex="1">
          <mxGeometry y="26" width="256" height="46" as="geometry" />
        </mxCell>
        <mxCell id="fN0G2EdwFAAk4O1QqVWk-34" value="" style="line;strokeWidth=1;fillColor=none;align=left;verticalAlign=middle;spacingTop=-1;spacingLeft=3;spacingRight=3;rotatable=0;labelPosition=right;points=[];portConstraint=eastwest;strokeColor=inherit;" parent="fN0G2EdwFAAk4O1QqVWk-32" vertex="1">
          <mxGeometry y="72" width="256" height="8" as="geometry" />
        </mxCell>
        <mxCell id="fN0G2EdwFAAk4O1QqVWk-35" value="+ enrichFully(List&amp;lt;AgileMembershipsDto&amp;gt; dtos): List&amp;lt;AgileMembershipsDto&amp;gt;&amp;nbsp;" style="text;strokeColor=none;fillColor=none;align=left;verticalAlign=top;spacingLeft=4;spacingRight=4;overflow=hidden;rotatable=0;points=[[0,0.5],[1,0.5]];portConstraint=eastwest;whiteSpace=wrap;html=1;" parent="fN0G2EdwFAAk4O1QqVWk-32" vertex="1">
          <mxGeometry y="80" width="256" height="36" as="geometry" />
        </mxCell>
        <mxCell id="fN0G2EdwFAAk4O1QqVWk-36" value="PeopleGroupsAgileMembershipsErichmentFacade" style="swimlane;fontStyle=1;align=center;verticalAlign=top;childLayout=stackLayout;horizontal=1;startSize=26;horizontalStack=0;resizeParent=1;resizeParentMax=0;resizeLast=0;collapsible=1;marginBottom=0;whiteSpace=wrap;html=1;" parent="WIyWlLk6GJQsqaUBKTNV-1" vertex="1">
          <mxGeometry x="728" y="300" width="424" height="264" as="geometry" />
        </mxCell>
        <mxCell id="fN0G2EdwFAAk4O1QqVWk-37" value="- fullEnricher: Enricher&amp;lt;List&amp;lt;AgileMembershipsDto&amp;gt;&amp;gt;" style="text;strokeColor=none;fillColor=none;align=left;verticalAlign=top;spacingLeft=4;spacingRight=4;overflow=hidden;rotatable=0;points=[[0,0.5],[1,0.5]];portConstraint=eastwest;whiteSpace=wrap;html=1;" parent="fN0G2EdwFAAk4O1QqVWk-36" vertex="1">
          <mxGeometry y="26" width="424" height="46" as="geometry" />
        </mxCell>
        <mxCell id="fN0G2EdwFAAk4O1QqVWk-38" value="" style="line;strokeWidth=1;fillColor=none;align=left;verticalAlign=middle;spacingTop=-1;spacingLeft=3;spacingRight=3;rotatable=0;labelPosition=right;points=[];portConstraint=eastwest;strokeColor=inherit;" parent="fN0G2EdwFAAk4O1QqVWk-36" vertex="1">
          <mxGeometry y="72" width="424" height="8" as="geometry" />
        </mxCell>
        <mxCell id="fN0G2EdwFAAk4O1QqVWk-39" value="+ enrichWithUserIdAndEmail(List&amp;lt;PeopleGroupsAgileMembershipsDto&amp;gt; dtos): List&amp;lt;PeopleGroupsAgileMembershipsDto&amp;gt;&amp;nbsp;&lt;div&gt;&lt;br&gt;&lt;/div&gt;&lt;div&gt;+ enrichWithUserId(List&amp;lt;PeopleGroupsAgileMembershipsDto&amp;gt; dtos): List&amp;lt;PeopleGroupsAgileMembershipsDto&amp;gt;&amp;nbsp;&lt;br&gt;&lt;/div&gt;&lt;div&gt;&lt;br&gt;&lt;/div&gt;&lt;div&gt;+ enrichWithEmail(List&amp;lt;PeopleGroupsAgileMembershipsDto&amp;gt; dtos): List&amp;lt;PeopleGroupsAgileMembershipsDto&amp;gt;&amp;nbsp;&lt;br&gt;&lt;/div&gt;&lt;div&gt;&lt;br&gt;&lt;/div&gt;&lt;div&gt;+ enrichWithNames(List&amp;lt;PeopleGroupsAgileMembershipsDto&amp;gt; dtos): List&amp;lt;PeopleGroupsAgileMembershipsDto&amp;gt;&amp;nbsp;&lt;br&gt;&lt;/div&gt;" style="text;strokeColor=none;fillColor=none;align=left;verticalAlign=top;spacingLeft=4;spacingRight=4;overflow=hidden;rotatable=0;points=[[0,0.5],[1,0.5]];portConstraint=eastwest;whiteSpace=wrap;html=1;" parent="fN0G2EdwFAAk4O1QqVWk-36" vertex="1">
          <mxGeometry y="80" width="424" height="184" as="geometry" />
        </mxCell>
        <mxCell id="fN0G2EdwFAAk4O1QqVWk-40" value="UserEnrichmentFacade" style="swimlane;fontStyle=1;align=center;verticalAlign=top;childLayout=stackLayout;horizontal=1;startSize=26;horizontalStack=0;resizeParent=1;resizeParentMax=0;resizeLast=0;collapsible=1;marginBottom=0;whiteSpace=wrap;html=1;" parent="WIyWlLk6GJQsqaUBKTNV-1" vertex="1">
          <mxGeometry x="424" y="448" width="256" height="116" as="geometry" />
        </mxCell>
        <mxCell id="fN0G2EdwFAAk4O1QqVWk-41" value="- fullEnricher: Enricher&amp;lt;List&amp;lt;AgileMembershipsDto&amp;gt;&amp;gt;" style="text;strokeColor=none;fillColor=none;align=left;verticalAlign=top;spacingLeft=4;spacingRight=4;overflow=hidden;rotatable=0;points=[[0,0.5],[1,0.5]];portConstraint=eastwest;whiteSpace=wrap;html=1;" parent="fN0G2EdwFAAk4O1QqVWk-40" vertex="1">
          <mxGeometry y="26" width="256" height="46" as="geometry" />
        </mxCell>
        <mxCell id="fN0G2EdwFAAk4O1QqVWk-42" value="" style="line;strokeWidth=1;fillColor=none;align=left;verticalAlign=middle;spacingTop=-1;spacingLeft=3;spacingRight=3;rotatable=0;labelPosition=right;points=[];portConstraint=eastwest;strokeColor=inherit;" parent="fN0G2EdwFAAk4O1QqVWk-40" vertex="1">
          <mxGeometry y="72" width="256" height="8" as="geometry" />
        </mxCell>
        <mxCell id="fN0G2EdwFAAk4O1QqVWk-43" value="+ enrichFully(List&amp;lt;AgileMembershipsDto&amp;gt; dtos): List&amp;lt;AgileMembershipsDto&amp;gt;&amp;nbsp;" style="text;strokeColor=none;fillColor=none;align=left;verticalAlign=top;spacingLeft=4;spacingRight=4;overflow=hidden;rotatable=0;points=[[0,0.5],[1,0.5]];portConstraint=eastwest;whiteSpace=wrap;html=1;" parent="fN0G2EdwFAAk4O1QqVWk-40" vertex="1">
          <mxGeometry y="80" width="256" height="36" as="geometry" />
        </mxCell>
        <mxCell id="fN0G2EdwFAAk4O1QqVWk-44" value="" style="endArrow=open;endSize=12;dashed=1;html=1;rounded=0;entryDx=0;entryDy=0;entryPerimeter=0;movable=1;resizable=1;rotatable=1;deletable=1;editable=1;locked=0;connectable=1;curved=0;entryX=0.463;entryY=1.078;" parent="WIyWlLk6GJQsqaUBKTNV-1" source="fN0G2EdwFAAk4O1QqVWk-23" target="fN0G2EdwFAAk4O1QqVWk-35" edge="1">
          <mxGeometry width="160" relative="1" as="geometry">
            <mxPoint x="424" y="796" as="sourcePoint" />
            <mxPoint x="584" y="796" as="targetPoint" />
            <Array as="points">
              <mxPoint x="544" y="676" />
            </Array>
          </mxGeometry>
        </mxCell>
        <mxCell id="fN0G2EdwFAAk4O1QqVWk-45" value="" style="endArrow=open;endSize=12;dashed=1;html=1;rounded=0;entryDx=0;entryDy=0;entryPerimeter=0;movable=1;resizable=1;rotatable=1;deletable=1;editable=1;locked=0;connectable=1;curved=0;entryX=0.503;entryY=0.98;" parent="WIyWlLk6GJQsqaUBKTNV-1" target="fN0G2EdwFAAk4O1QqVWk-43" edge="1" source="fN0G2EdwFAAk4O1QqVWk-23">
          <mxGeometry width="160" relative="1" as="geometry">
            <mxPoint x="544" y="704" as="sourcePoint" />
            <mxPoint x="239" y="619" as="targetPoint" />
            <Array as="points">
              <mxPoint x="552" y="684" />
            </Array>
          </mxGeometry>
        </mxCell>
        <mxCell id="fN0G2EdwFAAk4O1QqVWk-46" value="" style="endArrow=open;endSize=12;dashed=1;html=1;rounded=0;entryDx=0;entryDy=0;entryPerimeter=0;movable=1;resizable=1;rotatable=1;deletable=1;editable=1;locked=0;connectable=1;curved=0;entryX=0.575;entryY=1.009;" parent="WIyWlLk6GJQsqaUBKTNV-1" target="fN0G2EdwFAAk4O1QqVWk-39" edge="1" source="fN0G2EdwFAAk4O1QqVWk-23">
          <mxGeometry width="160" relative="1" as="geometry">
            <mxPoint x="560" y="700" as="sourcePoint" />
            <mxPoint x="561" y="615" as="targetPoint" />
            <Array as="points">
              <mxPoint x="560" y="676" />
            </Array>
          </mxGeometry>
        </mxCell>
        <mxCell id="fN0G2EdwFAAk4O1QqVWk-48" value="Services" style="html=1;whiteSpace=wrap;" parent="WIyWlLk6GJQsqaUBKTNV-1" vertex="1">
          <mxGeometry x="160" y="184" width="816" height="50" as="geometry" />
        </mxCell>
        <mxCell id="fN0G2EdwFAAk4O1QqVWk-52" value="" style="endArrow=diamondThin;endFill=0;endSize=24;html=1;rounded=0;entryX=0.07;entryY=0.997;entryDx=0;entryDy=0;entryPerimeter=0;exitX=0.406;exitY=0.014;exitDx=0;exitDy=0;exitPerimeter=0;" parent="WIyWlLk6GJQsqaUBKTNV-1" source="fN0G2EdwFAAk4O1QqVWk-32" target="fN0G2EdwFAAk4O1QqVWk-48" edge="1">
          <mxGeometry width="160" relative="1" as="geometry">
            <mxPoint x="192" y="452" as="sourcePoint" />
            <mxPoint x="352" y="376" as="targetPoint" />
          </mxGeometry>
        </mxCell>
        <mxCell id="fN0G2EdwFAAk4O1QqVWk-53" value="" style="endArrow=diamondThin;endFill=0;endSize=24;html=1;rounded=0;entryX=0.044;entryY=1.054;entryDx=0;entryDy=0;entryPerimeter=0;exitX=0.316;exitY=0.026;exitDx=0;exitDy=0;exitPerimeter=0;" parent="WIyWlLk6GJQsqaUBKTNV-1" edge="1">
          <mxGeometry width="160" relative="1" as="geometry">
            <mxPoint x="550.5" y="448" as="sourcePoint" />
            <mxPoint x="553.5" y="234" as="targetPoint" />
          </mxGeometry>
        </mxCell>
        <mxCell id="fN0G2EdwFAAk4O1QqVWk-54" value="" style="endArrow=diamondThin;endFill=0;endSize=24;html=1;rounded=0;entryX=0.044;entryY=1.054;entryDx=0;entryDy=0;entryPerimeter=0;exitX=0.305;exitY=-0.002;exitDx=0;exitDy=0;exitPerimeter=0;" parent="WIyWlLk6GJQsqaUBKTNV-1" source="fN0G2EdwFAAk4O1QqVWk-36" edge="1">
          <mxGeometry width="160" relative="1" as="geometry">
            <mxPoint x="856" y="448" as="sourcePoint" />
            <mxPoint x="859" y="234" as="targetPoint" />
          </mxGeometry>
        </mxCell>
      </root>
    </mxGraphModel>
  </diagram>
</mxfile>
